<body>
    <svg width="300" height="300">
      <!--I think I want 6-8 of each color ball-->
      <!-- red circles are here -->
      <g class="red balls">
        <circle r="20" cx="20" cy="20" fill="red"></circle>
        <circle r="20" cx="50" cy="50" fill="red"></circle>
        <circle r="20" cx="80" cy="20" fill="red"></circle>
        <circle r="20" cx="20" cy="80" fill="red"></circle>

        <circle r="20" cx="130" cy="20" fill="red"></circle>
        <circle r="20" cx="105" cy="55" fill="red"></circle>
        <circle r="20" cx="73" cy="90" fill="red"></circle>
        <circle r="20" cx="20" cy="120" fill="red"></circle>
      </g>

      <!--purple balls-->
      <g class="purple balls">
        <circle r="20" cx="180" cy="20" fill="purple"></circle>
        <circle r="20" cx="220" cy="20" fill="purple"></circle>
        <circle r="20" cx="260" cy="20" fill="purple"></circle>
        <circle r="20" cx="280" cy="60" fill="purple"></circle>
      </g>

      <!--blue circles here-->
      <g class="blue balls">
        <circle r="20" cx="140" cy="80" fill="blue"></circle>
        <circle r="20" cx="110" cy="110" fill="blue"></circle>
        <circle r="20" cx="220" cy="80" fill="blue"></circle>
        <circle r="20" cx="260" cy="95" fill="blue"></circle>
        <circle r="20" cx="180" cy="80" fill="blue"></circle>
        <circle r="20" cx="110" cy="150" fill="blue"></circle>
        <circle r="20" cx="180" cy="130" fill="blue"></circle>
        <circle r="20" cx="220" cy="130" fill="blue"></circle>
        <circle r="20" cx="280" cy="130" fill="blue"></circle>
        <circle r="20" cx="140" cy="130" fill="blue"></circle>
      </g>

      <!--yellow cicrles here-->
      <g class="yellow balls">
        <circle r="20" cx="170" cy="170" fill="yellow"></circle>
        <circle r="20" cx="200" cy="200" fill="yellow"></circle>
        <circle r="20" cx="230" cy="230" fill="yellow"></circle>
        <circle r="20" cx="230" cy="170" fill="yellow"></circle>
        <circle r="20" cx="170" cy="230" fill="yellow"></circle>
        <circle r="20" cx="260" cy="260" fill="yellow"></circle>
        <circle r="20" cx="220" cy="270" fill="yellow"></circle>
        <circle r="20" cx="180" cy="270" fill="yellow"></circle>
        <circle r="20" cx="275" cy="170" fill="yellow"></circle>
      </g>

      <!--green balls-->
      <g class="green balls">
        <circle r="20" cx="20" cy="250" fill="green"></circle>
        <circle r="20" cx="30" cy="200" fill="green"></circle>
        <circle r="20" cx="61" cy="250" fill="green"></circle>
        <circle r="20" cx="75" cy="200" fill="green"></circle>
        <circle r="20" cx="95" cy="272" fill="green"></circle>
        <circle r="20" cx="110" cy="230" fill="green"></circle>
        <circle r="20" cx="120" cy="190" fill="green"></circle>
        <circle r="20" cx="300" cy="0" fill="green"></circle>
      </g>

      <!--apparently pintool in adobe photoshot could help make this process faster-->
      <!--making a circle from a polygon because I think it would help me with the animation later (paths)-->
      <!--Actually you can't make circle with a polygon, just a path-->
      <!-- <polygon
        fill="pink"
        points="100, 50, 300, 50, 200, 50, 300, 200, 125, 300, 300, 300"
      ></polygon> -->
    </svg>
    
   